<svg width="400" height="188" viewBox="0 0 400 188" fill="none" xmlns="http://www.w3.org/2000/svg">
<circle cx="63.45" cy="101.05" r="63.45" fill="#199BF8"/>
<path d="M196.817 45.8736H198.517C206.711 45.8736 213.728 47.5298 219.568 50.8422C220.44 51.1909 220.875 51.8882 220.875 52.9342V61.9561C220.875 62.6535 220.527 63.0022 219.829 63.0022C219.655 63.0022 219.524 62.9586 219.437 62.8714C219.089 62.6971 218.566 62.4792 217.868 62.2177C217.171 61.869 216.691 61.6075 216.43 61.4331C210.851 58.9924 205.272 57.7721 199.694 57.7721H198.909C190.541 57.7721 184.047 60.5179 179.427 66.0095C174.807 71.5011 172.497 78.5181 172.497 87.0606V99.6129C172.497 108.155 174.807 115.172 179.427 120.664C184.047 126.156 190.541 128.901 198.909 128.901H199.694C205.883 128.901 212.464 127.202 219.437 123.802C219.524 123.715 219.655 123.671 219.829 123.671C219.917 123.671 220.004 123.715 220.091 123.802C220.265 123.802 220.396 123.802 220.483 123.802C220.745 124.064 220.875 124.369 220.875 124.717V133.739C220.875 134.698 220.44 135.439 219.568 135.962C213.466 139.187 206.449 140.8 198.517 140.8H196.817C185.136 140.8 175.853 136.921 168.967 129.163C162.08 121.318 158.637 111.555 158.637 99.8744V86.7991C158.637 74.9442 162.124 65.1814 169.098 57.5106C176.071 49.7526 185.311 45.8736 196.817 45.8736ZM257.244 72.0241H258.682C267.486 72.0241 274.503 74.7699 279.733 80.2615C285.051 85.6659 287.709 92.7701 287.709 101.574V111.25C287.709 120.054 285.051 127.202 279.733 132.693C274.503 138.098 267.486 140.8 258.682 140.8H257.244C248.44 140.8 241.379 138.054 236.062 132.562C230.832 127.071 228.217 119.967 228.217 111.25V101.574C228.217 92.7701 230.876 85.6659 236.193 80.2615C241.51 74.7699 248.527 72.0241 257.244 72.0241ZM258.421 82.615H257.506C252.188 82.615 248.179 84.3584 245.476 87.8451C242.774 91.2447 241.423 95.6467 241.423 101.051V111.773C241.423 117.177 242.774 121.623 245.476 125.11C248.266 128.509 252.275 130.209 257.506 130.209H258.421C263.738 130.209 267.748 128.509 270.45 125.11C273.152 121.71 274.503 117.264 274.503 111.773V101.051C274.503 95.5595 273.152 91.1139 270.45 87.7144C267.835 84.3148 263.825 82.615 258.421 82.615ZM341.812 42.7355H352.142C353.013 42.7355 353.449 43.1714 353.449 44.0431V137.793C353.449 138.664 353.013 139.1 352.142 139.1H342.989C342.292 139.1 341.856 138.751 341.682 138.054L341.289 131.647C335.798 137.749 329.216 140.8 321.546 140.8H320.63C312.524 140.8 306.422 138.098 302.325 132.693C298.315 127.202 296.31 120.315 296.31 112.034V101.574C296.31 92.8573 298.446 85.7531 302.717 80.2615C306.989 74.7699 313.352 72.0241 321.807 72.0241H322.853C329.827 72.0241 335.711 74.552 340.505 79.6077V44.0431C340.505 43.1714 340.941 42.7355 341.812 42.7355ZM324.814 82.615H324.422C314.485 82.615 309.516 88.7604 309.516 101.051V111.773C309.516 117.352 310.693 121.841 313.047 125.24C315.487 128.553 319.279 130.209 324.422 130.209H324.814C330.306 130.209 335.536 127.681 340.505 122.625V90.3294C335.362 85.1865 330.132 82.615 324.814 82.615ZM366.134 73.7239H376.464C377.335 73.7239 377.771 74.1597 377.771 75.0314V137.793C377.771 138.664 377.335 139.1 376.464 139.1H366.134C365.263 139.1 364.827 138.664 364.827 137.793V75.0314C364.827 74.1597 365.263 73.7239 366.134 73.7239ZM365.742 49.6654H376.856C377.815 49.6654 378.294 50.1013 378.294 50.9729V61.8254C378.294 62.7842 377.815 63.2637 376.856 63.2637H365.742C364.783 63.2637 364.304 62.7842 364.304 61.8254V50.9729C364.304 50.1013 364.783 49.6654 365.742 49.6654Z" fill="#BDBCBF"/>
<path d="M82.4961 71.9412L82.5346 71.9219H82.5539L63.45 60.9531L44.3558 71.9219H44.3366L44.404 71.9509L28.7026 81.0016V121.098L63.45 141.147L98.1975 121.098V81.0016L82.4961 71.9412ZM60.6259 133.012L46.833 125.05V111.595L34.3413 104.501V87.6426L60.6259 102.804V133.012ZM37.0594 82.6883L50.0427 75.1894L63.4308 82.8715L76.8382 75.1702L89.8696 82.6883L63.4693 97.9174L37.0594 82.6883V82.6883ZM92.5588 104.549L80.1442 111.595V125.002L66.2742 133.002V102.824L92.5588 87.6619V104.549Z" fill="white"/>
</svg>
