<svg xmlns:xlink="http://www.w3.org/1999/xlink" xmlns="http://www.w3.org/2000/svg" preserveAspectRatio="xMidYMin" width="20" height="20" viewBox="0 0 24 24" color="currentColor" stroke="currentColor" stroke-width="2" fill="transparent" class="jsx-3207996455 " style="vertical-align: middle;"><path d="M12 13C12.5523 13 13 12.5523 13 12C13 11.4477 12.5523 11 12 11C11.4477 11 11 11.4477 11 12C11 12.5523 11.4477 13 12 13Z" stroke-width="2px" stroke-linecap="round" stroke-linejoin="round" stroke="#5C5F66" fill-opacity="0" fill="#000000"></path><path d="M12 6C12.5523 6 13 5.55228 13 5C13 4.44772 12.5523 4 12 4C11.4477 4 11 4.44772 11 5C11 5.55228 11.4477 6 12 6Z" stroke-width="2px" stroke-linecap="round" stroke-linejoin="round" stroke="#5C5F66" fill-opacity="0" fill="#000000"></path><path d="M12 20C12.5523 20 13 19.5523 13 19C13 18.4477 12.5523 18 12 18C11.4477 18 11 18.4477 11 19C11 19.5523 11.4477 20 12 20Z" stroke-width="2px" stroke-linecap="round" stroke-linejoin="round" stroke="#5C5F66" fill-opacity="0" fill="#000000"></path></svg>