<svg xmlns:xlink="http://www.w3.org/1999/xlink" xmlns="http://www.w3.org/2000/svg" preserveAspectRatio="xMidYMin" width="16" height="16" viewBox="0 0 24 24" color="currentColor" stroke="currentColor" stroke-width="2" fill="transparent" class="jsx-1319342727 jsx-3027894632" style="vertical-align: middle;"><path d="M12 11V17M9 14H15M22 19C22 19.5304 21.7893 20.0391 21.4142 20.4142C21.0391 20.7893 20.5304 21 20 21H4C3.46957 21 2.96086 20.7893 2.58579 20.4142C2.21071 20.0391 2 19.5304 2 19V5C2 4.46957 2.21071 3.96086 2.58579 3.58579C2.96086 3.21071 3.46957 3 4 3H9L11 6H20C20.5304 6 21.0391 6.21071 21.4142 6.58579C21.7893 6.96086 22 7.46957 22 8V19Z" stroke-linecap="round" stroke-linejoin="round" stroke="#3D4047" fill-opacity="0" fill="#000000" stroke-width="2px"></path></svg>