<svg xmlns="http://www.w3.org/2000/svg" xmlns:xlink="http://www.w3.org/1999/xlink" width="23" height="22" viewBox="0 0 23 22" version="1.1">
<title>run_green_centered</title>
<desc>Created using Figma</desc>
<g id="Canvas" transform="translate(457 45)">
<g id="run_green_centered">
<g id="run_white">
<use xlink:href="#path0_fill" transform="translate(-453 -45)" fill="#1DB475"/>
</g>
</g>
</g>
<defs>
<path id="path0_fill" fill-rule="evenodd" d="M 0.00108384 10.9864C 0.00108384 7.75885 0.00108384 4.5313 0.00108384 1.30375C -0.006106 1.10454 0.0225154 0.905654 0.0856058 0.716413C 0.148019 0.559631 0.244897 0.418656 0.369174 0.30377C 0.493451 0.188883 0.641994 0.102983 0.803967 0.0523333C 0.96594 0.00168402 1.13726 -0.012437 1.30543 0.0110007C 1.4736 0.0344384 1.63438 0.0948437 1.77604 0.18781C 2.82411 0.791927 3.86372 1.41282 4.90334 2.02533L 17.6238 9.57679C 17.8512 9.70913 18.0442 9.89239 18.1874 10.1119C 18.3307 10.3315 18.4203 10.5813 18.449 10.8413C 18.4778 11.1014 18.4449 11.3645 18.353 11.6096C 18.2611 11.8548 18.1127 12.0752 17.9197 12.2534C 17.8343 12.3302 17.7407 12.3977 17.6408 12.4547L 1.94508 21.7263C 1.64909 21.944 1.27871 22.0374 0.913918 21.9864C 0.647993 21.9294 0.410767 21.7813 0.243851 21.568C 0.0769354 21.3547 -0.00901202 21.09 0.00108384 20.8201C 0.00108384 19.0749 0.00108384 17.3268 0.00108384 15.576L 0.00108384 10.9864Z"/>
</defs>
</svg>